<?xml version="1.0" standalone="no"?><!DOCTYPE svg PUBLIC "-//W3C//DTD SVG 1.1//EN" "http://www.w3.org/Graphics/SVG/1.1/DTD/svg11.dtd"><svg t="1761198790789" class="icon" viewBox="0 0 1024 1024" version="1.1" xmlns="http://www.w3.org/2000/svg" p-id="7888" xmlns:xlink="http://www.w3.org/1999/xlink" width="200" height="200"><path d="M961.024 962.56c-21.504-185.856-112.64-340.992-262.656-410.112L553.984 696.32c-28.672 28.672-74.752 28.672-102.912 0L314.368 559.616C172.544 631.808 85.504 782.336 64.512 962.56c-3.584 31.744 20.992 59.392 52.736 59.392H908.8c31.232 0 55.808-27.648 52.224-59.392zM757.76 876.032H611.84c-19.968 0-36.352-16.384-36.352-36.352 0-19.968 16.384-36.352 36.352-36.352h145.92c19.968 0 36.352 16.384 36.352 36.352 0 19.968-16.384 36.352-36.352 36.352zM512 514.048c140.288 0 253.952-114.688 253.952-256.512S652.288 1.024 512 1.024 258.048 115.712 258.048 257.536 371.712 514.048 512 514.048z" p-id="7889" fill="#4cddebff"></path></svg>